<svg width="41" height="40" viewBox="0 0 41 40" fill="none" xmlns="http://www.w3.org/2000/svg">
<g id="Animation" clip-path="url(#clip0_3_6759)">
<g id="Spinner">
<rect id="8" x="13.7273" y="17.2725" width="5.45455" height="12.7273" rx="2.72727" transform="rotate(90 13.7273 17.2725)" fill="#D5D0FB" fill-opacity="0.7"/>
<rect id="7" x="4.92944" y="7.78711" width="5.45455" height="12.7273" rx="2.72727" transform="rotate(-45 4.92944 7.78711)" fill="#D5D0FB" fill-opacity="0.9"/>
<rect id="6" x="18.2727" y="27.2725" width="5.45455" height="12.7273" rx="2.72727" fill="#D5D0FB" fill-opacity="0.4"/>
<rect id="5" x="13.9297" y="23.2139" width="5.45455" height="12.7273" rx="2.72727" transform="rotate(45 13.9297 23.2139)" fill="#D5D0FB" fill-opacity="0.6"/>
<rect id="4" x="24.2139" y="27.0713" width="5.45455" height="12.7273" rx="2.72727" transform="rotate(-45 24.2139 27.0713)" fill="#D5D0FB" fill-opacity="0.3"/>
<rect id="3" opacity="0.3" x="41" y="17.2725" width="5.45455" height="12.7273" rx="2.72727" transform="rotate(90 41 17.2725)" fill="#D5D0FB" fill-opacity="0.2"/>
<rect id="2" x="33.2141" y="3.92969" width="5.45455" height="12.7273" rx="2.72727" transform="rotate(45 33.2141 3.92969)" fill="#D5D0FB" fill-opacity="0.1"/>
<rect id="1" x="18.2727" width="5.45455" height="12.7273" rx="2.72727" fill="#D5D0FB"/>
</g>
</g>
<defs>
<clipPath id="clip0_3_6759">
<rect width="40" height="40" fill="white" transform="translate(0.5)"/>
</clipPath>
</defs>
</svg>
