<svg width="24" height="24" viewBox="0 0 24 24" fill="none" xmlns="http://www.w3.org/2000/svg">
<g id="Camera">
<path id="&#240;&#159;&#145;&#145; Edit Color" fill-rule="evenodd" clip-rule="evenodd" d="M2 8.34233C2 6.96573 2.93689 5.76578 4.27239 5.4319L6 5L7.40627 2.8906C7.7772 2.3342 8.40166 2 9.07037 2H14.9296C15.5983 2 16.2228 2.3342 16.5937 2.8906L18 5L19.7276 5.4319C21.0631 5.76578 22 6.96573 22 8.34233V19C22 20.6569 20.6569 22 19 22H5C3.34315 22 2 20.6569 2 19V8.34233Z" fill="#E9E9FF"/>
<path id="&#240;&#159;&#145;&#145; Edit Color_2" fill-rule="evenodd" clip-rule="evenodd" d="M18 10C18.5523 10 19 9.55228 19 9C19 8.44772 18.5523 8 18 8C17.4477 8 17 8.44772 17 9C17 9.55228 17.4477 10 18 10ZM12 17C14.2091 17 16 15.2091 16 13C16 10.7909 14.2091 9 12 9C9.79086 9 8 10.7909 8 13C8 15.2091 9.79086 17 12 17Z" fill="#4A44C6"/>
</g>
</svg>
