<svg width="24" height="24" viewBox="0 0 24 24" fill="none" xmlns="http://www.w3.org/2000/svg">
<g id="Question Circle">
<path id="&#240;&#159;&#145;&#145; Edit Color" fill-rule="evenodd" clip-rule="evenodd" d="M12 22C17.5228 22 22 17.5228 22 12C22 6.47715 17.5228 2 12 2C6.47715 2 2 6.47715 2 12C2 17.5228 6.47715 22 12 22Z" fill="#928FFF"/>
<path id="&#240;&#159;&#145;&#145; Edit Color_2" fill-rule="evenodd" clip-rule="evenodd" d="M11.1331 9.50073C10.8565 9.97879 10.2448 10.1421 9.76677 9.86561C9.28871 9.58906 9.12535 8.97733 9.40189 8.49927C9.91909 7.60518 10.8882 7 11.9999 7C13.6568 7 14.9999 8.34315 14.9999 10C14.9999 11.0977 14.3265 11.994 13.4999 12.5C13.24 12.6591 13.1452 12.9235 13.0511 13.1864L13.0511 13.1866C12.9046 13.5951 12.7594 14 11.9973 14C11.445 14 10.9973 13.5523 10.9973 13C10.9973 12.9649 10.9991 12.9302 11.0026 12.896C11.0304 12.3672 11.2662 11.9368 11.5229 11.6239C11.7941 11.2935 12.1506 11.0237 12.4233 10.8616C13.94 9.96 12.0901 8.1154 11.1331 9.50073ZM11.9973 15C11.445 15 10.9973 15.4477 10.9973 16C10.9973 16.5523 11.445 17 11.9973 17C12.5496 17 12.9973 16.5523 12.9973 16C12.9973 15.4477 12.5496 15 11.9973 15Z" fill="#4A44C6"/>
</g>
</svg>
