<svg width="12" height="12" viewBox="0 0 12 12" fill="none" xmlns="http://www.w3.org/2000/svg">
<path fill-rule="evenodd" clip-rule="evenodd" d="M6 12C2.685 12 0 9.315 0 6C0 2.685 2.685 0 6 0C9.315 0 12 2.685 12 6C12 9.315 9.315 12 6 12Z" fill="#2D14E0"/>
<path fill-rule="evenodd" clip-rule="evenodd" d="M8.7149 4.0349C8.5349 3.8549 8.2499 3.8549 8.0699 4.0349L5.2049 6.9749L3.9299 5.6549C3.7499 5.4749 3.4649 5.4749 3.2849 5.6549C3.1049 5.8349 3.1049 6.1349 3.2849 6.3149L4.8899 7.9649C5.0699 8.1449 5.3549 8.1449 5.5349 7.9649L8.7299 4.6949C8.8949 4.5149 8.8949 4.2149 8.7149 4.0349Z" fill="white"/>
</svg>
